<svg xmlns="http://www.w3.org/2000/svg" xmlns:xlink="http://www.w3.org/1999/xlink" width="500" zoomAndPan="magnify" viewBox="0 0 375 374.999991" height="500" preserveAspectRatio="xMidYMid meet" version="1.0"><defs><clipPath id="bdcae8de30"><path d="M 0.175781 0 L 342 0 L 342 375 L 0.175781 375 Z M 0.175781 0 " clip-rule="nonzero"/></clipPath><clipPath id="c9d5f6d568"><path d="M 0.046875 0.246094 L 370.5 0.246094 L 370.5 177.996094 L 0.046875 177.996094 Z M 0.046875 0.246094 " clip-rule="nonzero"/></clipPath></defs><g clip-path="url(#bdcae8de30)"><path fill="#8c52ff" d="M 0.0546875 374.925781 C 0.0546875 374.386719 0.0546875 373.851562 0.0546875 373.316406 C 0.0546875 249.585938 0.0585938 125.859375 0.0195312 2.128906 C 0.0195312 0.46875 0.378906 -0.0117188 2.113281 -0.0117188 C 114.085938 0.03125 226.054688 0.0273438 338.023438 0.03125 C 341.648438 0.03125 342.113281 0.515625 341.496094 4.164062 C 340.398438 10.695312 339.316406 17.25 338.390625 23.800781 C 337.28125 31.628906 335.34375 39.222656 333.46875 46.851562 C 331.753906 53.847656 329.449219 60.65625 326.832031 67.378906 C 325.671875 70.359375 324.71875 73.425781 323.296875 76.300781 C 320.746094 81.457031 318.476562 86.722656 315.257812 91.574219 C 311.601562 97.089844 307.835938 102.484375 303.511719 107.480469 C 301.34375 109.980469 299.085938 112.394531 296.734375 114.746094 C 294.359375 117.121094 291.933594 119.484375 289.566406 121.882812 C 287.464844 124.011719 285.097656 125.882812 282.769531 127.769531 C 278.730469 131.042969 274.75 134.421875 270.515625 137.429688 C 265.996094 140.636719 261.175781 143.414062 256.550781 146.476562 C 251.6875 149.703125 246.519531 152.40625 241.386719 155.132812 C 238.074219 156.894531 234.628906 158.480469 231.167969 159.96875 C 225.003906 162.617188 218.902344 165.429688 212.652344 167.839844 C 207.832031 169.699219 203.207031 172.078125 198.316406 173.671875 C 192.558594 175.550781 187.070312 178.171875 181.28125 179.867188 C 175.09375 181.679688 169.140625 184.191406 162.945312 185.90625 C 156.898438 187.582031 151.15625 190.160156 145.113281 191.757812 C 138.757812 193.433594 132.730469 196 126.507812 197.996094 C 119.445312 200.261719 112.746094 203.335938 106.050781 206.402344 C 101.621094 208.433594 97.226562 210.671875 93.214844 213.492188 C 89.507812 216.101562 85.847656 218.777344 82.289062 221.589844 C 77.839844 225.109375 73.734375 228.96875 69.933594 233.175781 C 67.332031 236.050781 64.867188 239.066406 62.777344 242.28125 C 60.667969 245.523438 58.171875 248.585938 56.597656 252.121094 C 54.695312 256.394531 52.179688 260.34375 50.378906 264.644531 C 47.246094 272.101562 44.226562 279.605469 41.519531 287.234375 C 39.460938 293.023438 37.710938 298.914062 35.5625 304.675781 C 34.472656 307.589844 33.199219 310.472656 32.472656 313.484375 C 31.238281 318.582031 29.089844 323.339844 27.46875 328.292969 C 25.671875 333.773438 23.257812 338.980469 20.738281 344.171875 C 18.933594 347.882812 16.492188 351.210938 14.75 354.878906 C 12.886719 358.796875 9.992188 361.957031 7.886719 365.675781 C 6.59375 367.964844 4.574219 369.84375 2.890625 371.910156 C 2.054688 372.933594 1.238281 373.972656 0.417969 375.003906 C 0.296875 374.984375 0.175781 374.953125 0.0546875 374.925781 Z M 0.0546875 374.925781 " fill-opacity="1" fill-rule="nonzero"/></g><g clip-path="url(#c9d5f6d568)"><path fill="#000000" d="M 185.273438 0.449219 C 124.519531 0.449219 63.761719 0.449219 3.003906 0.453125 C 0.015625 0.453125 0.324219 0.121094 0.324219 3.148438 C 0.320312 49.199219 0.335938 95.25 0.277344 141.304688 C 0.277344 143.066406 0.71875 143.886719 2.46875 144.050781 C 13.351562 145.070312 23.113281 149.660156 32.953125 153.882812 C 39.695312 156.777344 46.714844 158.925781 53.457031 161.785156 C 61.101562 165.023438 68.746094 168.269531 76.710938 170.640625 C 85.8125 173.351562 95.066406 175.425781 104.503906 176.613281 C 108.703125 177.140625 112.898438 177.878906 117.136719 177.6875 C 122.707031 177.445312 128.246094 176.917969 133.753906 175.875 C 140.269531 174.640625 146.742188 173.195312 152.703125 170.300781 C 159.054688 167.21875 164.980469 163.394531 170.769531 159.289062 C 175.53125 155.910156 179.820312 152.121094 183.882812 147.992188 C 186 145.839844 188.253906 143.820312 190.476562 141.769531 C 193.796875 138.703125 196.355469 134.953125 199.515625 131.757812 C 202.320312 128.917969 205.042969 126.015625 207.488281 122.871094 C 212.570312 116.351562 218.800781 110.941406 224.523438 105.046875 C 227.804688 101.667969 232.105469 99.566406 235.84375 96.746094 C 240.816406 92.988281 246.394531 90.277344 252.101562 87.9375 C 257.324219 85.792969 262.757812 84.140625 268.167969 82.511719 C 275.230469 80.390625 282.355469 78.46875 289.464844 76.523438 C 295.09375 74.984375 300.75 73.464844 306.054688 71.03125 C 312.070312 68.273438 317.976562 65.316406 323.40625 61.40625 C 327.300781 58.597656 331.644531 56.355469 335.199219 53.097656 C 339.550781 49.097656 344.394531 45.613281 348.332031 41.1875 C 354.1875 34.59375 359.539062 27.617188 363.425781 19.621094 C 366.179688 13.957031 368.007812 7.953125 370.109375 2.046875 C 370.546875 0.820312 370.152344 0.359375 368.902344 0.453125 C 368.390625 0.492188 367.871094 0.457031 367.355469 0.457031 C 306.65625 0.449219 245.964844 0.449219 185.273438 0.449219 Z M 185.273438 0.449219 " fill-opacity="1" fill-rule="nonzero"/></g></svg>